<svg viewBox="0 0 680 200" fill="none" xmlns="http://www.w3.org/2000/svg" role="img" aria-label="JuridFlow A">
  <defs>
    <linearGradient id="cAhd-bg" x1="20" y1="20" x2="180" y2="180" gradientUnits="userSpaceOnUse">
      <stop offset="0" stop-color="#1E1B4B"/>
      <stop offset=".45" stop-color="#4F46E5"/>
      <stop offset="1" stop-color="#7C3AED"/>
    </linearGradient>
    <radialGradient id="cAhd-shine" cx="50" cy="20" r="160" gradientUnits="userSpaceOnUse">
      <stop offset="0" stop-color="#FFFFFF" stop-opacity=".28"/>
      <stop offset="1" stop-color="#FFFFFF" stop-opacity="0"/>
    </radialGradient>
    <linearGradient id="cAhd-flow" x1="430" y1="60" x2="640" y2="140" gradientUnits="userSpaceOnUse">
      <stop offset="0" stop-color="#A78BFA"/>
      <stop offset="1" stop-color="#C4B5FD"/>
    </linearGradient>
  </defs>

  <rect x="20" y="20" width="160" height="160" rx="36" fill="url(#cAhd-bg)"/>
  <rect x="20" y="20" width="160" height="160" rx="36" fill="url(#cAhd-shine)"/>

  <g transform="translate(20 20) scale(0.625)" fill="#FFFFFF">
    <rect x="40" y="62" width="176" height="20" rx="5"/>
    <rect x="52" y="86" width="152" height="6" rx="3" opacity=".45"/>
    <rect x="62" y="100" width="24" height="92" rx="4"/>
    <rect x="116" y="100" width="24" height="92" rx="4"/>
    <rect x="170" y="100" width="24" height="92" rx="4"/>
    <rect x="52" y="194" width="152" height="6" rx="3" opacity=".45"/>
    <rect x="40" y="200" width="176" height="20" rx="5"/>
  </g>

  <g font-family="Inter, 'Helvetica Neue', Arial, sans-serif">
    <text x="206" y="130" font-size="96" font-weight="800" letter-spacing="-4.5" fill="#FFFFFF">Jurid</text>
    <text x="441" y="130" font-size="96" font-weight="300" letter-spacing="-3" fill="url(#cAhd-flow)">Flow</text>
  </g>
</svg>
